<mxfile host="app.diagrams.net" agent="Mozilla/5.0 (Windows NT 10.0; Win64; x64) AppleWebKit/537.36 (KHTML, like Gecko) Chrome/128.0.0.0 Safari/537.36" version="24.7.16">
  <diagram name="Página-1" id="PyUe_z53vgzSWNI_Ui5L">
    <mxGraphModel dx="582" dy="779" grid="1" gridSize="10" guides="1" tooltips="1" connect="1" arrows="1" fold="1" page="1" pageScale="1" pageWidth="827" pageHeight="1169" math="0" shadow="0">
      <root>
        <mxCell id="0" />
        <mxCell id="1" parent="0" />
        <mxCell id="PviHcS2KHvzWweHag39v-1" value="AdminLibros&lt;div&gt;&lt;br&gt;&lt;div&gt;fechaVencimientogglobal&lt;br&gt;&lt;div&gt;&lt;br&gt;&lt;/div&gt;&lt;div&gt;prestar()&lt;/div&gt;&lt;div&gt;obtenerUsuario(id)&lt;/div&gt;&lt;div&gt;devolver()&lt;/div&gt;&lt;div&gt;sansionar()&lt;/div&gt;&lt;div&gt;&lt;br&gt;&lt;/div&gt;&lt;/div&gt;&lt;/div&gt;" style="rounded=1;whiteSpace=wrap;html=1;" vertex="1" parent="1">
          <mxGeometry x="10" y="10" width="190" height="230" as="geometry" />
        </mxCell>
        <mxCell id="PviHcS2KHvzWweHag39v-2" value="Persona&lt;div&gt;&lt;br&gt;&lt;/div&gt;&lt;div&gt;id&lt;/div&gt;&lt;div&gt;tipoUusuario&lt;/div&gt;&lt;div&gt;limitePrestamos&lt;/div&gt;&lt;div&gt;deuda&lt;/div&gt;&lt;div&gt;libros&lt;/div&gt;&lt;div&gt;sansion&lt;/div&gt;&lt;div&gt;&lt;br&gt;&lt;/div&gt;&lt;div&gt;obtenerLibros()&lt;/div&gt;&lt;div&gt;prestarLibro()&lt;/div&gt;&lt;div&gt;devolverLibro()&lt;/div&gt;" style="rounded=1;whiteSpace=wrap;html=1;" vertex="1" parent="1">
          <mxGeometry x="25" y="420" width="175" height="210" as="geometry" />
        </mxCell>
        <mxCell id="PviHcS2KHvzWweHag39v-3" value="Libro&lt;div&gt;&lt;br&gt;&lt;/div&gt;&lt;div&gt;id&lt;/div&gt;&lt;div&gt;tipo&lt;/div&gt;&lt;div&gt;titulo&lt;/div&gt;&lt;div&gt;autor&lt;/div&gt;&lt;div&gt;añoPublicacion&lt;/div&gt;&lt;div&gt;prestamo: boolean&lt;br&gt;&lt;/div&gt;&lt;div&gt;cantidad&lt;/div&gt;&lt;div&gt;&lt;br&gt;&lt;/div&gt;" style="rounded=1;whiteSpace=wrap;html=1;" vertex="1" parent="1">
          <mxGeometry x="230" y="420" width="175" height="210" as="geometry" />
        </mxCell>
      </root>
    </mxGraphModel>
  </diagram>
</mxfile>
